<svg xmlns="http://www.w3.org/2000/svg" version="1.1" xmlns:xlink="http://www.w3.org/1999/xlink" xmlns:svgjs="http://svgjs.dev/svgjs" width="1920" height="1080" preserveAspectRatio="none" viewBox="0 0 1920 1080"><g mask="url(&quot;#SvgjsMask1037&quot;)" fill="none"><path d="M1502.855,1014.927C1603.266,1014.855,1700.331,970.375,1751.56,884.016C1803.796,795.96,1807.714,682.355,1750.51,597.442C1698.398,520.088,1595.842,507.589,1502.855,514.845C1423.844,521.01,1358.499,565.794,1314.173,631.49C1262.208,708.508,1212.506,801.012,1253.527,884.375C1297.921,974.593,1402.306,1015,1502.855,1014.927" fill="rgba(134, 239, 172, 0.49)" class="triangle-float3"></path><path d="M272.317,413.302C356.517,414.248,449.815,413.284,497.572,343.932C550.594,266.935,546.656,163.441,500.27,82.273C453.532,0.488,366.515,-50.412,272.317,-50.228C178.433,-50.045,91.567,1.131,45.903,83.161C1.418,163.072,3.933,263.544,55.66,338.969C101.943,406.456,190.489,412.383,272.317,413.302" fill="rgba(134, 239, 172, 0.49)" class="triangle-float3"></path><path d="M958.196,213.85C982.244,213.206,1003.631,199.49,1015.573,178.606C1027.426,157.879,1027.356,133.079,1016.563,111.781C1004.521,88.019,984.75,67.509,958.196,65.382C927.938,62.958,895.458,74.22,881.021,100.922C867.063,126.738,878.674,157.6,895.233,181.83C909.472,202.665,932.969,214.526,958.196,213.85" fill="rgba(134, 239, 172, 0.49)" class="triangle-float3"></path><path d="M1478.915,1102.435C1564.175,1108.529,1650.755,1075.577,1696.779,1003.547C1746.272,926.088,1754.2,824.94,1706.38,746.437C1660.158,670.557,1567.699,642.471,1478.915,645.895C1396.511,649.073,1317.682,689.563,1279.935,762.882C1244.787,831.153,1270.229,909.584,1309.052,975.835C1347.319,1041.136,1403.421,1097.039,1478.915,1102.435" fill="rgba(134, 239, 172, 0.49)" class="triangle-float1"></path><path d="M330.144,930.137C388.412,930.482,443.045,902.786,474.108,853.487C507.449,800.573,516.626,734.812,488.379,679.012C457.291,617.6,398.944,571.205,330.144,569.1C257.931,566.89,186.452,604.139,154.198,668.787C124.482,728.349,151.929,796.584,189.102,851.8C221.291,899.614,272.505,929.796,330.144,930.137" fill="rgba(134, 239, 172, 0.49)" class="triangle-float3"></path><path d="M332.919,558.31C380.456,560.088,423.979,528.155,444.105,485.052C461.83,447.091,442.088,406.204,420.787,370.128C399.992,334.909,373.803,297.876,332.919,296.746C290.642,295.578,256.342,327.83,236.216,365.027C217.138,400.289,217.322,441.387,235.261,477.242C255.55,517.795,287.606,556.615,332.919,558.31" fill="rgba(134, 239, 172, 0.49)" class="triangle-float1"></path><path d="M700.442,397.621C752.454,401.589,812.637,400.111,840.369,355.93C869.171,310.044,850.271,251.128,821.017,205.53C794.34,163.949,749.827,136.5,700.442,137.829C653.164,139.102,613.028,170.087,590.609,211.731C569.377,251.169,570.393,298.511,593.177,337.073C615.562,374.96,656.563,394.274,700.442,397.621" fill="rgba(134, 239, 172, 0.49)" class="triangle-float1"></path><path d="M935.768,677.697C1009.015,684.231,1094.534,677.995,1131.669,614.522C1169.005,550.704,1133.455,472.388,1091.503,411.505C1055.892,359.825,998.518,331.422,935.768,330.223C870.553,328.976,801.443,348.552,769.367,405.347C737.679,461.455,758.708,529.26,792.304,584.247C824.196,636.444,874.841,672.262,935.768,677.697" fill="rgba(134, 239, 172, 0.49)" class="triangle-float2"></path></g><defs><mask id="SvgjsMask1037"><rect width="1920" height="1080" fill="#ffffff"></rect></mask><style>
                @keyframes float1 {
                    0%{transform: translate(0, 0)}
                    50%{transform: translate(-10px, 0)}
                    100%{transform: translate(0, 0)}
                }

                .triangle-float1 {
                    animation: float1 5s infinite;
                }

                @keyframes float2 {
                    0%{transform: translate(0, 0)}
                    50%{transform: translate(-5px, -5px)}
                    100%{transform: translate(0, 0)}
                }

                .triangle-float2 {
                    animation: float2 4s infinite;
                }

                @keyframes float3 {
                    0%{transform: translate(0, 0)}
                    50%{transform: translate(0, -10px)}
                    100%{transform: translate(0, 0)}
                }

                .triangle-float3 {
                    animation: float3 6s infinite;
                }
            </style></defs></svg>