<?xml version="1.0" encoding="UTF-8" ?>
<!DOCTYPE svg PUBLIC "-//W3C//DTD SVG 1.1//EN" "http://www.w3.org/Graphics/SVG/1.1/DTD/svg11.dtd">
<svg width="756pt" height="756pt" viewBox="0 0 756 756" version="1.1" xmlns="http://www.w3.org/2000/svg">
<g id="#ffffffff">
<path fill="none" opacity="1.00" d=" M 66.86 236.99 C 174.40 178.25 282.10 119.77 389.92 61.56 C 499.31 123.90 609.25 185.34 718.33 248.17 C 648.55 247.86 578.74 245.79 508.95 245.01 C 505.54 244.98 501.90 244.97 498.99 242.95 C 463.67 219.35 428.40 195.66 393.02 172.14 C 357.74 194.49 322.34 216.66 287.08 239.06 C 284.12 241.07 280.45 241.12 277.02 240.99 C 206.98 239.40 136.89 238.95 66.86 236.99 Z" />
<path fill="none" opacity="1.00" d=" M 468.78 351.73 C 473.13 324.42 497.89 301.79 525.92 302.08 C 558.64 302.45 591.48 300.96 624.12 302.87 C 645.33 305.80 661.12 326.79 659.65 347.87 C 658.32 365.36 653.87 382.45 651.65 399.84 C 633.39 400.16 615.13 400.01 596.87 399.92 C 598.62 386.55 602.06 373.40 603.20 359.97 C 604.06 354.12 597.21 353.46 593.03 353.60 C 573.68 353.82 554.31 353.32 534.97 353.84 C 526.69 353.97 521.26 361.65 520.25 369.23 C 511.62 418.59 502.83 467.93 494.36 517.32 C 492.99 522.04 495.55 527.44 501.07 526.77 C 522.98 526.39 545.16 528.08 566.92 525.89 C 582.56 517.55 577.30 495.45 582.22 480.84 C 600.45 480.38 618.71 480.49 636.95 480.79 C 633.63 498.89 631.24 517.19 627.05 535.12 C 620.71 559.65 597.34 578.30 571.92 578.54 C 540.15 578.48 508.34 579.13 476.59 578.22 C 452.06 576.64 433.72 551.99 438.02 528.00 C 447.80 469.18 458.50 410.48 468.78 351.73 Z" />
<path fill="none" opacity="1.00" d=" M 75.11 303.81 C 203.69 303.39 332.30 303.53 460.89 303.74 C 458.06 320.62 455.27 337.50 452.13 354.32 C 429.08 354.34 406.03 354.46 382.98 354.25 C 369.45 428.37 356.71 502.65 343.72 576.86 C 325.48 577.29 307.23 577.03 288.98 577.02 C 301.77 502.76 315.15 428.60 327.93 354.35 C 282.28 354.30 236.63 354.48 190.98 354.25 C 177.44 428.37 164.71 502.65 151.72 576.86 C 133.48 577.29 115.23 577.03 96.98 577.01 C 109.75 502.75 123.20 428.59 135.90 354.32 C 112.83 354.29 89.76 354.56 66.70 354.19 C 69.18 337.34 72.38 320.62 75.11 303.81 Z" />
</g>
<g id="#2b9348ff">
<path fill="currentcolor" opacity="1.00" d=" M 10.70 107.65 C 26.21 49.11 83.36 5.08 144.02 5.61 C 346.34 5.62 548.66 5.43 750.98 5.71 C 751.03 198.47 750.99 391.24 751.00 584.00 C 750.82 604.63 752.33 625.65 746.75 645.78 C 732.48 705.68 674.67 751.45 613.00 751.01 C 410.57 750.99 208.14 751.06 5.71 750.98 C 5.40 559.65 5.67 368.33 5.58 177.00 C 5.85 153.84 3.87 130.15 10.70 107.65 M 66.86 236.99 C 136.89 238.95 206.98 239.40 277.02 240.99 C 280.45 241.12 284.12 241.07 287.08 239.06 C 322.34 216.66 357.74 194.49 393.02 172.14 C 428.40 195.66 463.67 219.35 498.99 242.95 C 501.90 244.97 505.54 244.98 508.95 245.01 C 578.74 245.79 648.55 247.86 718.33 248.17 C 609.25 185.34 499.31 123.90 389.92 61.56 C 282.10 119.77 174.40 178.25 66.86 236.99 M 468.78 351.73 C 458.50 410.48 447.80 469.18 438.02 528.00 C 433.72 551.99 452.06 576.64 476.59 578.22 C 508.34 579.13 540.15 578.48 571.92 578.54 C 597.34 578.30 620.71 559.65 627.05 535.12 C 631.24 517.19 633.63 498.89 636.95 480.79 C 618.71 480.49 600.45 480.38 582.22 480.84 C 577.30 495.45 582.56 517.55 566.92 525.89 C 545.16 528.08 522.98 526.39 501.07 526.77 C 495.55 527.44 492.99 522.04 494.36 517.32 C 502.83 467.93 511.62 418.59 520.25 369.23 C 521.26 361.65 526.69 353.97 534.97 353.84 C 554.31 353.32 573.68 353.82 593.03 353.60 C 597.21 353.46 604.06 354.12 603.20 359.97 C 602.06 373.40 598.62 386.55 596.87 399.92 C 615.13 400.01 633.39 400.16 651.65 399.84 C 653.87 382.45 658.32 365.36 659.65 347.87 C 661.12 326.79 645.33 305.80 624.12 302.87 C 591.48 300.96 558.64 302.45 525.92 302.08 C 497.89 301.79 473.13 324.42 468.78 351.73 M 75.11 303.81 C 72.38 320.62 69.18 337.34 66.70 354.19 C 89.76 354.56 112.83 354.29 135.90 354.32 C 123.20 428.59 109.75 502.75 96.98 577.01 C 115.23 577.03 133.48 577.29 151.72 576.86 C 164.71 502.65 177.44 428.37 190.98 354.25 C 236.63 354.48 282.28 354.30 327.93 354.35 C 315.15 428.60 301.77 502.76 288.98 577.02 C 307.23 577.03 325.48 577.29 343.72 576.86 C 356.71 502.65 369.45 428.37 382.98 354.25 C 406.03 354.46 429.08 354.34 452.13 354.32 C 455.27 337.50 458.06 320.62 460.89 303.74 C 332.30 303.53 203.69 303.39 75.11 303.81 Z" />
</g>
</svg>
